<svg xmlns="http://www.w3.org/2000/svg" fill="none" viewBox="0 0 56 56"><circle cx="28" cy="28" r="28" fill="#fff"/><path fill="#3C8BD9" d="M23.8 19c.3-.6.6-1.3 1.2-1.8 2-2 5.4-1.5 6.8 1L35 24c1.8 3.2 3.7 6.3 5.4 9.5 1.5 2.6 0 6-3 6.4-1.9.3-3.6-.5-4.5-2.2L28 29.4l-.1-.2c-.2-.1-.2-.3-.3-.5L25.5 25l-1.3-2.4c-.5-.7-.6-1.5-.6-2.3 0-.5 0-.9.2-1.3z"/><path fill="#FABC04" d="M23.8 19l-.2 1.2c0 .9.2 1.7.7 2.5l3.4 6 .3.5a389 389 0 01-1.9 3.3l-2.6 4.6v-.3a4.3 4.3 0 00-3.5-5.5c-1.3-.1-2.4.2-3.4 1l-.5.4 1.4-2.7 6.3-10.9z"/><path fill="#34A852" d="M16 32.7l.7-.5c2.5-2 6.4-.6 7 2.6a4.6 4.6 0 01-.3 2.5l-.3.5a4.2 4.2 0 01-4 2.2c-2.2-.2-3.8-1.7-4-3.8-.2-1 0-2 .5-2.8l.4-.6z"/><path fill="#FABC04" d="M16 32.7v0z"/><path fill="#E1C025" d="M23.4 37.3V37v.2z"/></svg>