<svg xmlns="http://www.w3.org/2000/svg" fill="none" viewBox="0 0 56 56"><circle cx="28" cy="28" r="28" fill="#fff"/><path fill="url(#paint0_linear)" d="M10.7 26.9L27 16.3c.7-.4 1.5-.4 2.2 0l16.2 10.6a1.3 1.3 0 010 2.3L43 30.6a18 18 0 00-30.2 0l-2.2-1.4c-.6-.4-.9-1.1-.6-1.8l.6-.5zm17.3-.2c-4.6 0-9 2.4-11.4 6.3l3.7 2.4a9 9 0 0115.3 0l3.7-2.4A13.3 13.3 0 0028 26.7zm0 8.9c-1.7 0-3.2.9-4 2.3l2.5 1.6c.4.3 1 .5 1.5.5s1-.2 1.4-.5l2.5-1.6a4.5 4.5 0 00-4-2.3z"/><defs><linearGradient id="paint0_linear" x1="28" x2="28" y1="40" y2="16" gradientUnits="userSpaceOnUse"><stop stop-color="#EFC119"/><stop offset=".3" stop-color="#92C84E"/><stop offset=".5" stop-color="#71BF5B"/><stop offset=".8" stop-color="#15B158"/><stop offset=".9" stop-color="#23AC69"/><stop offset="1" stop-color="#23AC69"/></linearGradient></defs></svg>