<svg width="56" height="56" fill="none" xmlns="http://www.w3.org/2000/svg"><circle cx="28" cy="28" r="28" fill="#fff"/><path d="M34 27.3h.5v-.9c0-.6-.2-1-.6-.9-.3 0-.3.5-.2 1 0 .4.2.7.3.8zM31.1 27.8c.3.1.4.2.5.1v-.2l-.7-.5c-.5-.2-1.1-.1-1.6.2-.2.1-.3.3-.3.4h.1l1.1-.2c.4 0 .7 0 1 .2zM30.7 28l-.6.3-.2.3h.3a2 2 0 011-.1h.3v-.2s-.4-.3-.8-.2zM33 29c.3.2.5.1.6 0 0-.2 0-.4-.3-.5l-.5.1c0 .2 0 .4.2.5zM34.4 27.9c-.2 0-.3.2-.3.4s.1.4.3.4c.2 0 .3-.1.3-.4 0-.2-.1-.4-.3-.4zM22.9 32.1h-.2-.2l-.3-.1v-.5l.1-.1c.1-.3.4-.8.1-1.3-.2-.4-.5-.6-.9-.7-.4 0-.7.1-1 .4-.4.4-.4 1-.3 1.2l.3-.1c0-.2 0-.3.2-.5l.4-.3.5.1c.3.2.4.5.3.9l-.2.7c0 .5.4.7.7.7l.5-.2V32z" fill="#000"/><path d="M38.7 31.2l-.1-.6-.2-.5c.3-.6.3-1 .3-1.4 0-.3-.2-.6-.5-1a4 4 0 00-1.8-.8l-.4-.1v-1.5c0-.3 0-.8-.2-1.3-.2-.7-.5-1.3-1-1.6 1.2-1.2 1.9-2.5 1.9-3.6 0-2-2.6-2.7-5.8-1.4l-.7.3-1.2-1.2c-3.6-3.1-15 9.4-11.3 12.5l.8.6c-.2.6-.3 1.2-.2 1.8 0 .9.5 1.7 1.2 2.3.7.6 1.5 1 2.4 1a9.2 9.2 0 008.4 5.3c4 .1 7.4-1.8 8.8-5.2.1-.2.5-1.3.5-2.3 0-1-.5-1.3-.9-1.3zm-16.5 2.5a2 2 0 01-.4 0c-1.2 0-2.5-1-2.6-2.4-.2-1.4.5-2.5 1.8-2.8h.6c.7 0 1.8.6 2 2.2.3 1.4 0 2.8-1.4 3zm-1.4-6c-.8.1-1.5.6-2 1.2l-.8-.8c-.7-1.3.8-3.9 1.8-5.3 2.5-3.6 6.5-6.4 8.3-5.9.3.1 1.3 1.3 1.3 1.3s-1.8 1-3.5 2.4a16 16 0 00-5 7zm12.8 5.5V33s-1.9.3-3.7-.4c.2-.6.7-.4 1.5-.3a11 11 0 003.7-.4c.8-.3 1.8-.7 2.7-1.4.3.6.4 1.3.4 1.3h.4c.1.2.3.4.2 1a5.7 5.7 0 01-3 4 7 7 0 01-1.2.4c-2.8 1-5.8-.1-6.7-2.3l-.2-.5c-.4-1.5 0-3.2 1-4.3l.1-.3v-.2c-.4-.6-1.7-1.5-1.5-3.3.2-1.3 1.3-2.2 2.4-2.1h.3l1.2.1c.6 0 1.2 0 1.8-.6.3-.2.4-.4.7-.4h.3l.5.1c.5.4.6 1.2.6 1.8v1.5c.1.6.3.7.6.8l.5.1c.7.2 1.2.4 1.4.7l.3.5c0 .6-.5 1.3-2 2-1.6.8-3.5 1-4.9.8h-.4c-1.1-.2-1.7 1.2-1 2.2.3.6 1.5 1 2.6 1 2.6 0 4.6-1.1 5.3-2l.1-.2c-.6.4-3.3 2-6.2 1.5l-.7-.1c-.3-.1-.8-.4-.9-1 2.4.8 3.8.1 3.8.1zm-3.7-.4zm-4.4-10c.9-1.1 2-2 3-2.5l-.3.7h.1c.6-.3 1.7-.8 2.6-.9v.1l-.4.4v.1c.7 0 1.7.2 2.3.6a9 9 0 00-7.3 1.5z" fill="#000"/></svg>