<svg width="56" height="56" fill="none" xmlns="http://www.w3.org/2000/svg"><circle cx="28" cy="28" r="28" fill="#fff"/><path fill-rule="evenodd" clip-rule="evenodd" d="M33.8 38.3h-9.5c-.3 0-.7.2-.8.6-.1.6.3 1.1.8 1.1h9.5c.3 0 .6-.2.8-.6a.8.8 0 00-.8-1.1zm3-14.5h2.7c.8 0 1.4-.6 1.4-1.4 0-.8-.6-1.4-1.4-1.4h-2.7c-.8 0-1.4.6-1.4 1.4 0 .8.6 1.4 1.4 1.4zm2.7 8.4H28.2c-.8 0-1.4.6-1.4 1.4 0 .8.6 1.4 1.4 1.4h11.3c.8 0 1.4-.6 1.4-1.4 0-.8-.6-1.4-1.4-1.4zm-20-5.8c-1 0-1.6.7-1.6 1.6 0 .9.7 1.6 1.5 1.6h4.2c.9 0 1.5-.7 1.5-1.6 0-.9-.6-1.6-1.5-1.6h-4.2zm22 0h-4.6c-.8 0-1.5.7-1.5 1.6 0 .9.7 1.6 1.5 1.6h4.6c.8 0 1.5-.7 1.5-1.6 0-.9-.7-1.6-1.5-1.6zm-17.7-2.6h8.6c.7 0 1.4-.6 1.4-1.4 0-.8-.7-1.4-1.4-1.4h-18c-.8 0-1.4.6-1.4 1.4 0 .8.6 1.4 1.4 1.4h9.4zm1.3 9.8c0-.8-.6-1.4-1.3-1.4h-9.4c-.8 0-1.4.6-1.4 1.4 0 .8.6 1.4 1.4 1.4h9.4c.7 0 1.3-.6 1.3-1.4zm12.1 4.7a.8.8 0 00-1 1c.1.3.4.6.7.7.6.1 1.1-.4 1-1 0-.4-.3-.6-.7-.7zm-12-20.6h9.4c.3 0 .7-.2.8-.6a.8.8 0 00-.8-1.1h-9.4c-.4 0-.7.2-.8.6-.2.6.2 1.1.7 1.1zm-3.5 0c.6.1 1-.4 1-1-.1-.3-.4-.6-.7-.7a.8.8 0 00-1 1c0 .4.3.6.7.7z" fill="#72E6B9"/></svg>